<svg xmlns="http://www.w3.org/2000/svg" viewBox="0 0 416.69 208.46"><defs><style>.cls-1{fill:#23211e;}</style></defs><title>Recurso 1</title><g id="Capa_2" data-name="Capa 2"><g id="Capa_1-2" data-name="Capa 1"><path class="cls-1" d="M415.65,139.41a11.52,11.52,0,0,0-5.12-3.31,104.83,104.83,0,0,0-30.17-4.34c-6.14,0-12.28,0-18.43-.2-3.85-.14-7.61-.78-11.42-1.25-6.6-.81-13.21-1.57-19.85-2.1-7.31-.58-14.61-1.23-21.92-1.81-2-.16-4.07-.29-6.1-.63a91.46,91.46,0,0,0-15.5-1.51c-4.51,0-9,.17-13.53.4a119,119,0,0,1-15,.33c-10.32-.79-20.67.27-31,.39-4.08.05-8.12-.27-12.18-.42-6.58-.25-13.16-.44-19.67.58a53,53,0,0,1-11.62.74c-4.88-.32-9.81-.18-14.7-1.12-3-.58-5-1.73-6.36-4.29a12.06,12.06,0,0,0-3.53-4.22c-.5-.37-1.26-.74-1.13-1.76a19,19,0,0,1-1.41-1.57,13.61,13.61,0,0,1-3.35-2.92c-.86-.94-1.85-1.76-2.77-2.64a30.65,30.65,0,0,1-3.79-3.67,27.86,27.86,0,0,1-5.3-13.36,17.88,17.88,0,0,0-2.25-7.23,90.48,90.48,0,0,0-6-8.17,15,15,0,0,1-2.83-7.85c-.31-2.44.51-4.84.59-7.24.13-4.31,2.07-8,3.79-11.7a8.18,8.18,0,0,0,.87-4.31,12.6,12.6,0,0,0-3.69-7.52,43.59,43.59,0,0,1-5.17-5.43c-1.34-1.9-2.94-3.57-2-6.25a4.92,4.92,0,0,0-.11-2.91,38.56,38.56,0,0,0-2-4.78c-.94-1.95-2-3.83-2-6.09a11.12,11.12,0,0,0-2-5.72c-.59-.9-1.24-1.75-1.83-2.64-.26-.39-.4-.75-.15-1.08A20.83,20.83,0,0,1,114.63,0l-1.36.63c-1.6.76-2.38.71-2.69-.2a21.34,21.34,0,0,1-2.12,1.79,9.17,9.17,0,0,0,1.8,2.5,2.27,2.27,0,0,1,.7.92c.73,2.81,3,4.72,4.29,7.15,2,3.56,3.45,7.29,1.9,11.45a4,4,0,0,0,0,2.57c1.21,4.47,3.52,8.45,5.71,12.46a19.38,19.38,0,0,1,1.84,4c1.39,4.71.34,9.29-1,13.69a33.34,33.34,0,0,0-1.28,14.15,9.6,9.6,0,0,0,.65,3.14c1.17,2.43,2.6,4.75,3.84,7.15,1.78,3.48,4.14,6.67,5.31,10.46a61.45,61.45,0,0,0,2.23,7,86.44,86.44,0,0,0,4.64,8.84c1.59,2.7,3,5.51,5.13,7.83a2.26,2.26,0,0,1,.6.89,3.94,3.94,0,0,1,1,1.18,4.43,4.43,0,0,1,.91,1.52,6.73,6.73,0,0,1,2,1.93c.06.08.16.12.22.2.81,1,1.75,1.76,1.07,3.32a3.46,3.46,0,0,1-3.25,2.29,49.14,49.14,0,0,0-8,1.5,29.44,29.44,0,0,0-10.5,5.7,9.12,9.12,0,0,1-3.78,2c-4.43,1.09-8.81,2.33-13.23,3.42-1.61.4-3.27.53-4.88,1.05-5.39,1.76-10.85,3.33-16.27,5-2,.62-3.87,1.38-5.81,2.07a3.61,3.61,0,0,0-2.48,3.28c-.1,1.29,1.2,1.65,2.09,2.22.49.31,1,.58,1.51.91,2.83,1.88,2.84,2.78,0,4.63a2.12,2.12,0,0,1-.51.28c-2.88.95-5.52,2.47-8.49,3.24-3.68.95-7.43,1.66-11.08,2.63-5.24,1.39-10.62,2.5-15.57,4.9a10.65,10.65,0,0,1-4.29,1c-3.75.12-7.5.27-11.26.22-4.22-.07-8.41-.35-12.67,0s-8.51-.12-12.55,1.59a1.53,1.53,0,0,1-.55.2c-2.75-.2-4.53,1.75-6.54,3.05A4.33,4.33,0,0,0,1,182.18a33.36,33.36,0,0,0,10.48,8.29c3.48,1.67,7,3.32,10.57,4.74a40,40,0,0,0,15.6,3c1.72,0,3.45-.58,5.13-.23a43.78,43.78,0,0,0,8.91.75c7.31.05,14.53,1.45,21.84,1.48,2.89,0,5.79.52,8.66.77,3.89.35,7.7,1.25,11.6,1.38,3.48.13,7,.61,10.43.6,5.12,0,10.23-.33,15.35-.49,2-.06,4.17.28,6.14-.12,5.39-1.08,10.71,0,16.05.18,3,.07,6,.78,9,.7s6,.66,9,.79c5.86.25,11.59,1.85,17.49,1.63a2.36,2.36,0,0,1,.87.13c2.52.92,5.21.6,7.78.78,4.51.31,9,.69,13.53,1,7,.57,13.89,1.3,20.88.53a38,38,0,0,1,5-.26,164.15,164.15,0,0,0,18.42-.61c2.68-.25,5.42-.23,8.06-.62a21.7,21.7,0,0,0,10.36-4.25c2-1.56,3.84-3,4.62-5.43a1.51,1.51,0,0,1,1.31-1c3-.54,5.89-1.1,8.85-1.62a3.78,3.78,0,0,1,1.46,0,6.86,6.86,0,0,0,4-.17c1.77-.6,3.6-.31,5.3-.23,3.74.17,7.31-.78,11-1a1.74,1.74,0,0,0,.81-.36,12.49,12.49,0,0,0,4.66-6.44c.55-1.47-.28-2.43-.46-3.62-.07-.49-.09-1-.15-1.47a66.83,66.83,0,0,0-1.28-7.12c-.91-4,.09-6.89,4.3-8.05a48.51,48.51,0,0,1,8-1.48,15.54,15.54,0,0,1,2.86-.35,67.46,67.46,0,0,0,14.82-.79c4-.64,7.44-2.7,11.08-4.21a56.79,56.79,0,0,1,12.88-3.75c5.19-.84,10.49-1,15.74-1.44a41.66,41.66,0,0,1,7-.12,99.86,99.86,0,0,0,11.72.28c4.69-.13,9.37-.54,13.44-3.33,3.7-2.52,7.68-4.62,11.21-7.41C417,141.85,417.18,141,415.65,139.41Zm-1.18,3.2c-5.11,3.11-10,6.68-15.83,8.4-3.37,1-6.85.7-10.27.58-5.61-.21-11.23-.32-16.83-.06-4.2.2-8.37,1-12.55,1.54-1.95.26-3.9.54-5.82,1-5.66,1.23-10.93,3.57-16.26,5.74a29.31,29.31,0,0,1-9.5,1.9c-6.72.38-13.52-.2-20.17,1.46-2.75.69-5.16,1.66-6.66,4.32a7,7,0,0,0-.89,4.48c.43,3.82,1.32,7.55,2,11.3a6.15,6.15,0,0,1-5.33,7.34c-4.67.3-9.32.66-14,.63-3.65,0-7.46,0-11,1.28a10.19,10.19,0,0,1-2.27.64,5.44,5.44,0,0,0-4.29,2.82c-2.3,4.63-6.5,6.33-11,7.4a44.61,44.61,0,0,1-6.94,1.24,27.72,27.72,0,0,1-5.83-.1c-2-.27-4.06.14-6.09.08s-4,.51-5.88-.33a2.87,2.87,0,0,0-1.42-.13c-5.58.53-11.18,1-16.75,1.52a32.14,32.14,0,0,1-8.49-.22c-4.57-.76-9.22-.38-13.78-1.12-5.72-.92-11.53-.81-17.29-1.45s-11.69-1.24-17.56-1.63c-6.17-.4-12.36-.46-18.5-1.28a31.45,31.45,0,0,0-4.34,0c-10.52.12-21,1.21-31.57.63-4.5-.25-9-.82-13.44-1.39-5.34-.69-10.73-1-16.09-1.56-5.18-.54-10.38-.84-15.56-1.38a157.71,157.71,0,0,0-15.83-.8A41.43,41.43,0,0,1,22.12,192,107.93,107.93,0,0,1,12,187.41c-2.83-1.57-6-3-7.39-6.42-.79-1.87-.87-3,.88-4.06,2-1.15,3.68-3.37,6.61-2,.71.34,2.07-.21,3.13-.35a195.32,195.32,0,0,1,21.08-1.12,54.74,54.74,0,0,0,16.45-2.83,173.44,173.44,0,0,1,18.78-4.94A48.07,48.07,0,0,0,87,159.63c2.54-1.57,3.6-4.83-.33-6.83-1-.52-1.52-1.48-2.65-2a2.88,2.88,0,0,1,2-1.64c2.83-.83,5.6-1.89,8.47-2.5,3.59-.77,6.75-2.65,10.29-3.49,5.53-1.31,11.07-2.64,16.53-4.19a23.83,23.83,0,0,0,9-4.27,21.74,21.74,0,0,1,12.24-4.6,23.73,23.73,0,0,0,7.76-2.12c3.27-1.5,3.37-4.3.77-6.73a51.92,51.92,0,0,1-7.77-9.47c-2.21-3.36-4.11-6.93-6.14-10.4a25.43,25.43,0,0,1-2.33-6c-1.74-6-4.68-11.47-7.8-16.79-3.81-6.52-4-13.17-1.65-20.08a41.63,41.63,0,0,0,2.12-13.61c0-3.11-1.88-5.77-3.41-8.39-1.4-2.38-2.31-5-3.56-7.42a8.92,8.92,0,0,1-.75-5.48,15.44,15.44,0,0,0-3.1-12.73c-2.06-2.57-2.86-5.79-4.91-8.36a1.84,1.84,0,0,1,2.53.3c2.48,2.9,5.39,5.54,5.54,9.8a10.67,10.67,0,0,0,2.08,5.15,10.62,10.62,0,0,1,1.29,7.94,6.91,6.91,0,0,0,1,5.25c1.71,2.82,4.29,4.86,6.28,7.42a14.75,14.75,0,0,1,2.64,4.23,6.16,6.16,0,0,1-.25,5.14c-3.28,6.14-4.18,12.85-4.33,19.66a14.42,14.42,0,0,0,4.24,10.41,29.65,29.65,0,0,1,7.78,16.62c1,6.41,4.54,11.62,9.87,15.5a11.5,11.5,0,0,1,3.69,4.45c1.38,3,3.77,5.19,5.55,7.86.28.41.68.73.92,1.16a8.7,8.7,0,0,0,5.11,4.15,7.2,7.2,0,0,0,3.63.68c.51,0,1,.08,1.54.11,6.28.32,12.56.16,18.83.2a31.6,31.6,0,0,0,6.46-.65c7-1.42,14.07-.94,21.12-.67,6.88.26,13.75.3,20.63-.07,4.21-.23,8.43-.28,12.64-.46a41.12,41.12,0,0,0,5.3-.41,20.32,20.32,0,0,1,6.18-.24,111.52,111.52,0,0,0,12,.56c2.64.09,5.32-.38,8-.27,4.51.18,9,.28,13.54.42a.93.93,0,0,1,.29,0c4.26,1.49,8.83.85,13.17,1.9a16.82,16.82,0,0,0,4.71.18c3.94-.19,7.77.85,11.7.9s7.74.47,11.61.66c2.67.13,5.44.6,8.11.73,4.29.21,8.51.87,12.74,1.37,4,.49,8,0,11.95.25,5.92.41,11.85-.2,17.76.07a60.05,60.05,0,0,1,9.53,1.24,129,129,0,0,1,13.4,3.17,11.44,11.44,0,0,1,4,2.44C415.78,140.78,415.81,141.79,414.47,142.61Z"/><path class="cls-1" d="M60.73,12.39a.25.25,0,0,0,0-.07l-.09,0-.08,0h.15Z"/></g></g></svg>